<svg width="141" height="24" viewBox="0 0 141 24" fill="none" xmlns="http://www.w3.org/2000/svg">
<path d="M2.42257 23.192C1.92657 23.192 1.54257 23.056 1.27057 22.784C1.01457 22.496 0.886574 22.104 0.886574 21.608V7.64C0.886574 7.128 1.02257 6.744 1.29457 6.488C1.56657 6.216 1.95057 6.08 2.44657 6.08H8.23057C10.0866 6.08 11.5186 6.544 12.5266 7.472C13.5346 8.4 14.0386 9.696 14.0386 11.36C14.0386 13.024 13.5346 14.328 12.5266 15.272C11.5186 16.2 10.0866 16.664 8.23057 16.664H3.95857V21.608C3.95857 22.104 3.83057 22.496 3.57457 22.784C3.31857 23.056 2.93457 23.192 2.42257 23.192ZM3.95857 14.24H7.75057C8.83857 14.24 9.66257 14 10.2226 13.52C10.7826 13.024 11.0626 12.304 11.0626 11.36C11.0626 10.416 10.7826 9.704 10.2226 9.224C9.66257 8.744 8.83857 8.504 7.75057 8.504H3.95857V14.24ZM24.0096 23.24C22.3776 23.24 20.9456 22.88 19.7136 22.16C18.4976 21.44 17.5536 20.432 16.8816 19.136C16.2096 17.824 15.8736 16.288 15.8736 14.528C15.8736 13.2 16.0656 12.008 16.4496 10.952C16.8336 9.88 17.3776 8.968 18.0816 8.216C18.8016 7.448 19.6576 6.864 20.6496 6.464C21.6576 6.048 22.7776 5.84 24.0096 5.84C25.6576 5.84 27.0896 6.2 28.3056 6.92C29.5216 7.624 30.4656 8.624 31.1376 9.92C31.8096 11.216 32.1456 12.744 32.1456 14.504C32.1456 15.832 31.9536 17.032 31.5696 18.104C31.1856 19.176 30.6336 20.096 29.9136 20.864C29.2096 21.632 28.3536 22.224 27.3456 22.64C26.3536 23.04 25.2416 23.24 24.0096 23.24ZM24.0096 20.6C25.0496 20.6 25.9296 20.36 26.6496 19.88C27.3856 19.4 27.9456 18.704 28.3296 17.792C28.7296 16.88 28.9296 15.792 28.9296 14.528C28.9296 12.608 28.4976 11.12 27.6336 10.064C26.7856 9.008 25.5776 8.48 24.0096 8.48C22.9856 8.48 22.1056 8.72 21.3696 9.2C20.6336 9.664 20.0656 10.352 19.6656 11.264C19.2816 12.16 19.0896 13.248 19.0896 14.528C19.0896 16.432 19.5216 17.92 20.3856 18.992C21.2496 20.064 22.4576 20.6 24.0096 20.6ZM36.8054 23.192C36.3094 23.192 35.9254 23.056 35.6534 22.784C35.3974 22.496 35.2694 22.104 35.2694 21.608V7.64C35.2694 7.128 35.4054 6.744 35.6774 6.488C35.9494 6.216 36.3334 6.08 36.8294 6.08H42.6134C44.4694 6.08 45.9014 6.528 46.9094 7.424C47.9174 8.304 48.4214 9.544 48.4214 11.144C48.4214 12.184 48.1894 13.08 47.7254 13.832C47.2774 14.584 46.6214 15.16 45.7574 15.56C44.8934 15.96 43.8454 16.16 42.6134 16.16L42.8294 15.8H43.6214C44.2774 15.8 44.8454 15.96 45.3254 16.28C45.8214 16.6 46.2534 17.104 46.6214 17.792L48.4214 21.128C48.6134 21.464 48.7014 21.792 48.6854 22.112C48.6694 22.432 48.5494 22.696 48.3254 22.904C48.1014 23.096 47.7734 23.192 47.3414 23.192C46.9094 23.192 46.5574 23.104 46.2854 22.928C46.0134 22.736 45.7734 22.448 45.5654 22.064L43.1414 17.6C42.8534 17.056 42.5094 16.696 42.1094 16.52C41.7254 16.328 41.2294 16.232 40.6214 16.232H38.3414V21.608C38.3414 22.104 38.2134 22.496 37.9574 22.784C37.7014 23.056 37.3174 23.192 36.8054 23.192ZM38.3414 13.952H42.0854C43.1894 13.952 44.0214 13.728 44.5814 13.28C45.1574 12.816 45.4454 12.128 45.4454 11.216C45.4454 10.32 45.1574 9.648 44.5814 9.2C44.0214 8.736 43.1894 8.504 42.0854 8.504H38.3414V13.952ZM56.8698 23.192C56.3738 23.192 55.9898 23.056 55.7178 22.784C55.4618 22.496 55.3338 22.104 55.3338 21.608V8.648H50.6538C50.2378 8.648 49.9098 8.536 49.6698 8.312C49.4458 8.072 49.3338 7.752 49.3338 7.352C49.3338 6.936 49.4458 6.624 49.6698 6.416C49.9098 6.192 50.2378 6.08 50.6538 6.08H63.0858C63.5018 6.08 63.8218 6.192 64.0458 6.416C64.2858 6.624 64.4058 6.936 64.4058 7.352C64.4058 7.752 64.2858 8.072 64.0458 8.312C63.8218 8.536 63.5018 8.648 63.0858 8.648H58.4058V21.608C58.4058 22.104 58.2778 22.496 58.0218 22.784C57.7658 23.056 57.3818 23.192 56.8698 23.192ZM67.696 23.192C67.2 23.192 66.816 23.056 66.544 22.784C66.288 22.496 66.16 22.104 66.16 21.608V7.472C66.16 6.96 66.288 6.568 66.544 6.296C66.816 6.024 67.2 5.888 67.696 5.888C68.192 5.888 68.568 6.024 68.824 6.296C69.096 6.568 69.232 6.96 69.232 7.472V21.608C69.232 22.104 69.104 22.496 68.848 22.784C68.592 23.056 68.208 23.192 67.696 23.192ZM74.5174 23.192C74.0214 23.192 73.6294 23.056 73.3414 22.784C73.0694 22.496 72.9334 22.088 72.9334 21.56V7.712C72.9334 7.184 73.0694 6.784 73.3414 6.512C73.6294 6.224 74.0374 6.08 74.5654 6.08H82.9414C83.3575 6.08 83.6695 6.184 83.8775 6.392C84.0854 6.6 84.1894 6.896 84.1894 7.28C84.1894 7.68 84.0854 7.992 83.8775 8.216C83.6695 8.424 83.3575 8.528 82.9414 8.528H76.0054V13.304H82.4374C82.8374 13.304 83.1414 13.408 83.3495 13.616C83.5735 13.824 83.6855 14.12 83.6855 14.504C83.6855 14.904 83.5735 15.216 83.3495 15.44C83.1414 15.648 82.8374 15.752 82.4374 15.752H76.0054V21.56C76.0054 22.648 75.5094 23.192 74.5174 23.192ZM93.6893 23.24C92.0573 23.24 90.6253 22.88 89.3933 22.16C88.1773 21.44 87.2333 20.432 86.5613 19.136C85.8893 17.824 85.5533 16.288 85.5533 14.528C85.5533 13.2 85.7453 12.008 86.1293 10.952C86.5133 9.88 87.0573 8.968 87.7613 8.216C88.4813 7.448 89.3373 6.864 90.3293 6.464C91.3373 6.048 92.4573 5.84 93.6893 5.84C95.3373 5.84 96.7693 6.2 97.9853 6.92C99.2013 7.624 100.145 8.624 100.817 9.92C101.489 11.216 101.825 12.744 101.825 14.504C101.825 15.832 101.633 17.032 101.249 18.104C100.865 19.176 100.313 20.096 99.5933 20.864C98.8893 21.632 98.0333 22.224 97.0253 22.64C96.0333 23.04 94.9213 23.24 93.6893 23.24ZM93.6893 20.6C94.7293 20.6 95.6093 20.36 96.3293 19.88C97.0653 19.4 97.6253 18.704 98.0093 17.792C98.4093 16.88 98.6093 15.792 98.6093 14.528C98.6093 12.608 98.1773 11.12 97.3133 10.064C96.4653 9.008 95.2573 8.48 93.6893 8.48C92.6653 8.48 91.7853 8.72 91.0493 9.2C90.3133 9.664 89.7453 10.352 89.3453 11.264C88.9613 12.16 88.7693 13.248 88.7693 14.528C88.7693 16.432 89.2013 17.92 90.0653 18.992C90.9293 20.064 92.1373 20.6 93.6893 20.6ZM94.8893 4.496C94.6973 4.704 94.4813 4.816 94.2413 4.832C94.0173 4.832 93.8093 4.768 93.6173 4.64C93.4413 4.496 93.3213 4.32 93.2573 4.112C93.2093 3.904 93.2573 3.688 93.4013 3.464L95.2733 0.704C95.4493 0.431999 95.6573 0.271999 95.8973 0.223999C96.1533 0.159998 96.4013 0.175999 96.6413 0.271999C96.8813 0.351999 97.0733 0.487999 97.2173 0.679998C97.3773 0.855999 97.4653 1.064 97.4813 1.304C97.4973 1.528 97.4013 1.752 97.1933 1.976L94.8893 4.496ZM106.509 23C106.013 23 105.629 22.864 105.357 22.592C105.085 22.304 104.949 21.912 104.949 21.416V7.568C104.949 7.056 105.077 6.672 105.333 6.416C105.605 6.144 105.989 6.008 106.485 6.008C106.981 6.008 107.357 6.144 107.613 6.416C107.885 6.672 108.021 7.056 108.021 7.568V20.384H114.981C115.413 20.384 115.741 20.496 115.965 20.72C116.205 20.944 116.325 21.264 116.325 21.68C116.325 22.096 116.205 22.424 115.965 22.664C115.741 22.888 115.413 23 114.981 23H106.509ZM119.962 23.192C119.466 23.192 119.082 23.056 118.81 22.784C118.554 22.496 118.426 22.104 118.426 21.608V7.472C118.426 6.96 118.554 6.568 118.81 6.296C119.082 6.024 119.466 5.888 119.962 5.888C120.458 5.888 120.834 6.024 121.09 6.296C121.362 6.568 121.498 6.96 121.498 7.472V21.608C121.498 22.104 121.37 22.496 121.114 22.784C120.858 23.056 120.474 23.192 119.962 23.192ZM132.783 23.24C131.151 23.24 129.719 22.88 128.487 22.16C127.271 21.44 126.327 20.432 125.655 19.136C124.983 17.824 124.647 16.288 124.647 14.528C124.647 13.2 124.839 12.008 125.223 10.952C125.607 9.88 126.151 8.968 126.855 8.216C127.575 7.448 128.431 6.864 129.423 6.464C130.431 6.048 131.551 5.84 132.783 5.84C134.431 5.84 135.863 6.2 137.079 6.92C138.295 7.624 139.239 8.624 139.911 9.92C140.583 11.216 140.919 12.744 140.919 14.504C140.919 15.832 140.727 17.032 140.343 18.104C139.959 19.176 139.407 20.096 138.687 20.864C137.983 21.632 137.127 22.224 136.119 22.64C135.127 23.04 134.015 23.24 132.783 23.24ZM132.783 20.6C133.823 20.6 134.703 20.36 135.423 19.88C136.159 19.4 136.719 18.704 137.103 17.792C137.503 16.88 137.703 15.792 137.703 14.528C137.703 12.608 137.271 11.12 136.407 10.064C135.559 9.008 134.351 8.48 132.783 8.48C131.759 8.48 130.879 8.72 130.143 9.2C129.407 9.664 128.839 10.352 128.439 11.264C128.055 12.16 127.863 13.248 127.863 14.528C127.863 16.432 128.295 17.92 129.159 18.992C130.023 20.064 131.231 20.6 132.783 20.6Z" fill="#07080B"/>
</svg>
